<svg xmlns="http://www.w3.org/2000/svg" width="512" height="512" viewBox="0 0 584 420" version="1.1">
  <path d="M 267.500 7.005 C 252.352 8.843, 221.127 16.078, 209.716 20.393 C 203.072 22.906, 182.271 33.027, 174.317 37.617 C 153.592 49.577, 130.348 69.001, 114.136 87.906 C 111.586 90.880, 108.269 94.633, 106.765 96.246 C 105.261 97.859, 101.919 102.626, 99.337 106.839 C 96.756 111.053, 94.091 115.175, 93.415 116 C 91.387 118.475, 78.406 144.085, 76.182 150 C 72.809 158.969, 67.278 177.089, 66.108 183 C 65.510 186.025, 64.355 191.875, 63.542 196 C 60.439 211.740, 59.636 220.039, 59.624 236.500 C 59.607 258.820, 62.677 281.796, 68.244 301 C 75.556 326.227, 83.874 343.304, 102.582 371.500 C 109.329 381.668, 133.769 407.282, 145.500 416.479 C 181.149 444.427, 216.234 459.842, 263 468.104 C 280.169 471.137, 323.068 468.894, 344 463.870 C 358.264 460.446, 379.574 452.669, 393.870 445.670 C 427.593 429.161, 457.395 404.758, 479.721 375.372 C 491.761 359.526, 503.949 337.193, 511.849 316.500 C 514.443 309.705, 518.291 295.665, 521.168 282.500 C 523.983 269.621, 524.268 266.544, 524.730 244.061 C 525.374 212.729, 524.054 201.315, 516.798 175.500 C 511.025 154.960, 508.784 149.246, 499.346 131 C 481.989 97.448, 457.741 69.128, 428.870 48.689 C 420.889 43.040, 403.887 33.064, 395.178 28.922 C 380.586 21.981, 354.465 13.320, 339.500 10.460 C 319.937 6.721, 284.034 4.999, 267.500 7.005 M 287 17.757 C 272.944 18.416, 251.767 20.953, 242.863 23.045 C 216.552 29.227, 192.212 39.968, 166.991 56.528 C 120.365 87.141, 86.888 137.343, 75.650 193.500 C 70.416 219.655, 69.259 245.469, 72.513 263.500 C 73.407 268.450, 74.772 276.325, 75.548 281 C 78.537 299.024, 85.798 319.126, 96.678 339.500 C 102.718 350.810, 118.315 372.878, 126.289 381.396 C 127.780 382.989, 129 384.631, 129 385.046 C 129 386.102, 153.180 407.613, 160.762 413.303 C 168.613 419.194, 180.121 426.405, 190.500 431.937 C 194.900 434.282, 198.950 436.566, 199.500 437.012 C 203.621 440.352, 237.378 451.428, 252.500 454.403 C 270.887 458.019, 302.923 459.051, 318.500 456.528 C 340.842 452.910, 351.698 450.278, 365.500 445.132 C 400.164 432.209, 428.355 414.024, 451.052 389.945 C 466.831 373.205, 472.860 365.646, 479.111 354.769 C 481.870 349.968, 484.562 345.771, 485.092 345.443 C 486.389 344.642, 493.926 329.513, 498.267 319 C 502.980 307.585, 509.444 283.126, 511.480 269 C 516.477 234.339, 513.505 202.199, 502.083 167.352 C 494.865 145.332, 482.650 122.230, 468.201 103.274 C 460.667 93.390, 435.907 68.170, 430.018 64.383 C 427.553 62.797, 422.828 59.470, 419.518 56.990 C 404.332 45.609, 373.642 31.047, 355.177 26.461 C 327.597 19.611, 306.072 16.863, 287 17.757 M 244.986 34.312 C 240.659 36.457, 225.905 58.065, 218.230 73.500 C 208.061 93.951, 201.414 119.837, 200.455 142.728 C 199.891 156.172, 200.395 155.743, 190.850 150.924 C 182.278 146.597, 159.768 139.408, 149 137.559 C 138.041 135.677, 120.174 134.488, 116.542 135.400 C 113.178 136.244, 112.409 137.994, 109.377 151.694 C 107.152 161.750, 106.761 165.946, 106.741 180 C 106.728 189.075, 107.279 199.875, 107.966 204 C 109.713 214.505, 113.762 231.495, 115.522 235.707 C 117.418 240.245, 117.535 239.879, 113.683 241.488 C 107.739 243.971, 98.074 252.018, 95.237 256.845 C 91.626 262.987, 91.643 271.353, 95.298 287 C 101.507 313.582, 106.674 326.440, 119.814 348 C 131.607 367.349, 158.247 393.254, 178 404.579 C 203.183 419.017, 204.225 419.491, 231.954 429.135 C 249.669 435.297, 291.650 439.393, 312.500 436.994 C 335.895 434.303, 366.002 426.463, 380.225 419.359 C 383.924 417.512, 387.354 416, 387.848 416 C 388.985 416, 402.609 407.997, 410.500 402.694 C 420.978 395.652, 443.853 376.013, 448.500 370.069 C 459.899 355.488, 469.557 342.049, 472.459 336.731 C 476.721 328.919, 485.268 306.914, 487.890 297 C 490.321 287.808, 492.320 269.313, 491.432 264.239 C 490.055 256.382, 482.744 247.461, 474.045 243.023 C 471.820 241.888, 470 240.390, 470 239.695 C 470 239, 470.863 235.971, 471.917 232.965 C 481.057 206.901, 483.321 175.595, 478.016 148.615 C 475.169 134.133, 473.643 130.515, 469.678 128.842 C 466.223 127.383, 441.979 127.026, 434.225 128.319 C 430.645 128.916, 429.850 128.745, 429.335 127.266 C 428.998 126.295, 426.940 121.685, 424.762 117.023 C 421.528 110.100, 419.284 107.026, 412.519 100.262 C 399.878 87.621, 388.398 83, 369.633 83 C 358.264 83, 348.596 85.376, 339.683 90.361 C 336.104 92.362, 332.752 94, 332.235 94 C 331.718 94, 329.097 91.188, 326.411 87.750 C 318.312 77.387, 300.010 59.683, 291.500 53.979 C 282.823 48.163, 261.557 36.947, 255.968 35.239 C 249.451 33.248, 247.471 33.081, 244.986 34.312 M 246.834 48.750 C 245.437 50.263, 242.583 54.425, 240.492 58 C 238.401 61.575, 235.904 65.659, 234.943 67.076 C 227.532 78.010, 218.390 102.382, 214.506 121.564 C 211.771 135.073, 211.054 154.987, 213.092 160.833 C 213.722 162.641, 216.152 165.411, 218.842 167.387 C 221.404 169.270, 228.526 175.956, 234.669 182.245 C 262.841 211.087, 274.055 240.546, 275.879 290.500 L 276.500 307.500 280.500 307.500 L 284.500 307.500 285.119 300 C 287.495 271.225, 284.326 213.432, 278.965 187.781 C 272.447 156.594, 267.258 134.412, 262.525 117.500 C 259.524 106.775, 259.396 103.857, 261.829 101.655 C 264.516 99.223, 267.704 99.618, 269.676 102.628 C 270.623 104.073, 273.745 114.985, 276.613 126.878 C 279.482 138.770, 282.956 153, 284.333 158.500 C 289.801 180.345, 296 221.658, 296 236.259 C 296 239.351, 296.377 242.115, 296.838 242.400 C 297.300 242.685, 299.052 239.449, 300.733 235.209 C 307.886 217.167, 310.522 212.055, 319.658 198.500 C 328.719 185.058, 330.795 182.384, 338.655 174.028 L 346.238 165.968 345.161 158.734 C 342.840 143.153, 337.336 128.675, 325.607 107.296 C 318.834 94.950, 299.203 73.529, 286.500 64.624 C 275.383 56.830, 254.470 46, 250.538 46 C 249.898 46, 248.231 47.237, 246.834 48.750 M 355 96.332 C 347.115 99.234, 339 104.018, 339 105.765 C 339 106.469, 340.736 110.522, 342.858 114.772 C 346.564 122.195, 352.001 137.584, 355.570 150.750 C 356.501 154.188, 357.408 157, 357.584 157 C 357.760 157, 360.738 155.029, 364.202 152.620 C 375.478 144.777, 393.382 137.129, 411 132.628 C 416.038 131.341, 416.483 130.999, 416.303 128.548 C 416.195 127.077, 414.121 122.414, 411.694 118.186 C 406.801 109.660, 400.064 103.445, 389.769 97.957 C 384.186 94.982, 382.810 94.691, 372.600 94.331 C 362.784 93.984, 360.748 94.216, 355 96.332 M 433 140.081 C 407.447 143.335, 386.193 151.290, 367 164.783 C 353.492 174.279, 331.913 198.081, 324.906 211.211 C 324.133 212.660, 322.010 216.468, 320.190 219.673 C 309.680 238.172, 299 271.682, 299 286.159 L 299 290.096 303.581 286.944 C 306.101 285.211, 317.694 279.001, 329.343 273.146 C 357.518 258.984, 373.462 247.770, 391.821 229.199 C 406.443 214.407, 412.297 206.726, 420.760 191.223 C 426.632 180.466, 428.713 178.706, 432.907 180.950 C 437.144 183.218, 435.312 189.181, 425.211 206 C 410.954 229.739, 380.601 258.684, 356.500 271.524 C 352.650 273.575, 349.050 275.589, 348.500 275.999 C 347.950 276.409, 339.228 280.965, 329.117 286.123 C 313.985 293.842, 309.653 296.553, 304.617 301.452 L 298.500 307.404 301.500 307.796 C 310.595 308.985, 373.716 304.385, 387.500 301.530 C 391.350 300.732, 396.419 299.878, 398.765 299.633 C 411.090 298.342, 431.529 280.685, 446.082 258.754 C 450.437 252.192, 454 246.651, 454 246.441 C 454 246.231, 455.075 243.683, 456.388 240.780 C 461.852 228.698, 468.022 207.207, 468.800 197.548 C 470.177 180.435, 468.002 149.786, 464.840 141.750 L 463.757 139 451.629 139.127 C 444.958 139.197, 436.575 139.626, 433 140.081 M 121.629 148.342 C 119.849 155.433, 118.002 173.891, 118.018 184.424 C 118.057 209.999, 126.149 237.611, 139.603 258.084 C 147.065 269.440, 160.549 283.572, 172.573 292.641 C 181.799 299.600, 182.527 299.758, 229.895 305.086 C 239.462 306.163, 247.562 306.756, 247.895 306.405 C 248.228 306.054, 247.184 304.807, 245.576 303.634 C 226.146 289.455, 179.974 242.061, 173.156 229.296 C 172.509 228.084, 169.823 224.259, 167.189 220.796 C 158.682 209.614, 152 197.790, 152 193.920 C 152 189.746, 153.468 187.994, 156.950 188.015 C 160.746 188.038, 161.464 188.786, 166.559 198.023 C 180.616 223.512, 200.781 248.063, 228.997 274.038 C 244.248 288.078, 261.172 302, 262.990 302 C 263.892 302, 264.085 297.375, 263.771 283.250 C 263.380 265.662, 263.133 263.660, 259.790 250.952 C 255.862 236.021, 251.502 224.720, 246.818 217.332 C 235.881 200.079, 229.847 192.727, 218.503 182.830 C 197.341 164.368, 175.813 154.335, 147 149.506 C 141.775 148.631, 135.062 147.483, 132.083 146.957 C 123.776 145.489, 122.296 145.685, 121.629 148.342 M 116.241 253.567 C 109.256 257.048, 105 262.016, 105 266.688 C 105 269.633, 105.751 271.001, 109.033 274.030 C 111.251 276.078, 115.188 278.552, 117.783 279.529 C 120.377 280.506, 124.891 282.568, 127.814 284.111 C 133.787 287.266, 149.347 292.278, 151.709 291.807 C 152.727 291.605, 150.481 288.852, 145.127 283.740 C 140.657 279.471, 137 275.645, 137 275.236 C 137 274.828, 135.390 272.245, 133.421 269.497 C 131.453 266.749, 128.058 261.462, 125.877 257.750 C 123.696 254.037, 121.795 251, 121.652 251 C 121.509 251, 119.074 252.155, 116.241 253.567 M 460.030 258.250 C 454.018 268.749, 449.977 274.183, 441.386 283.314 C 437.192 287.773, 434.273 291.591, 434.899 291.800 C 438.846 293.115, 474.266 277.015, 478.086 272.169 C 480.922 268.572, 480.179 262.840, 476.361 258.855 C 473.918 256.305, 466.017 251, 464.662 251 C 464.397 251, 462.313 254.262, 460.030 258.250 M 107.605 290.750 C 109.181 297.493, 115.303 315.372, 118.014 321.153 C 134.871 357.092, 167.067 389.217, 201.989 404.942 C 213.664 410.198, 236.213 419, 238.005 419 C 238.757 419, 242.101 419.635, 245.436 420.412 C 248.771 421.189, 254.650 422.540, 258.500 423.415 C 274.331 427.011, 300.730 427.056, 324.500 423.527 C 345 420.483, 366.665 413.909, 380.688 406.478 C 411.069 390.376, 429.590 375.499, 448.509 352 C 455.630 343.154, 464.638 328.038, 469.068 317.500 C 473.046 308.034, 478.547 289.213, 477.609 288.275 C 477.308 287.975, 476.036 288.400, 474.781 289.220 C 466.322 294.746, 446.250 301.437, 421.623 306.939 C 413.990 308.644, 407.415 310.244, 407.011 310.493 C 405.489 311.434, 349.738 317.615, 335 318.478 C 301.719 320.425, 237.853 318.437, 208.465 314.539 C 191.893 312.340, 171.870 309.059, 168.500 307.989 C 166.850 307.465, 162.076 306.387, 157.891 305.594 C 151.005 304.287, 140.176 301.304, 128 297.359 C 125.525 296.557, 119.998 294.123, 115.718 291.950 C 111.439 289.778, 107.718 288, 107.449 288 C 107.181 288, 107.251 289.238, 107.605 290.750 M 139.896 322.104 C 136.076 325.924, 138.979 332.323, 151.871 348.500 C 163.737 363.389, 173.440 371.765, 193.576 384.500 C 205.699 392.167, 223.013 400.161, 230.565 401.578 C 234.876 402.387, 238 400.027, 238 395.960 C 238 392.505, 236.630 391.656, 221.117 385.494 C 195.272 375.228, 167.800 353.273, 153.556 331.500 C 145.472 319.143, 143.923 318.077, 139.896 322.104" stroke="#10b981" fill="#10b981" fill-rule="evenodd"/>
</svg>
